<?xml version="1.0" encoding="UTF-8"?>
<svg width="20px" height="20px" viewBox="0 0 20 20" version="1.1" xmlns="http://www.w3.org/2000/svg" xmlns:xlink="http://www.w3.org/1999/xlink">
    <!-- Generator: Sketch 53 (72520) - https://sketchapp.com -->
    <title>眼睛浏览icon</title>
    <desc>Created with Sketch.</desc>
    <g id="眼睛浏览icon" stroke="none" stroke-width="1" fill="none" fill-rule="evenodd">
        <g fill-rule="nonzero">
            <rect id="Rectangle" fill="#52C41A" opacity="0" x="0" y="0" width="20" height="20"></rect>
            <path d="M9.98957031,5.26501953 C13.2991797,5.26501953 16.1479297,7.20623047 17.4810742,10.0079883 L18.7801758,10.0079883 C17.372168,6.53318359 13.9697656,4.07972656 9.98955078,4.07972656 C6.00998047,4.07972656 2.60757812,6.53318359 1.19958984,10.0079883 L2.49871094,10.0079688 C3.83181641,7.20623047 6.68056641,5.265 9.98957031,5.265 L9.98957031,5.26501953 Z M9.98957031,14.7509375 C6.68058594,14.7509375 3.83181641,12.8097266 2.49871094,10.0079687 L1.19958984,10.0079687 C2.60755859,13.4833984 6.00996094,15.9368359 9.98957031,15.9368359 C13.9697656,15.9368359 17.3721875,13.4833789 18.7801758,10.0079687 L17.4810547,10.0079687 C16.1479102,12.8097266 13.2991797,14.7509375 9.98955078,14.7509375 L9.98957031,14.7509375 Z M6.82800781,10.0082813 C6.82800781,11.7546094 8.24351562,13.1701172 9.98982422,13.1701172 C11.7361914,13.1701172 13.1516602,11.7546094 13.1516602,10.0082813 C13.1516602,8.26191406 11.7361914,6.84644531 9.98982422,6.84644531 C8.24349609,6.84644531 6.82800781,8.26191406 6.82800781,10.0082813 Z M11.9663672,10.0082812 C11.9663672,11.0996875 11.0812109,11.9847852 9.98982422,11.9847852 C8.8984375,11.9847852 8.01392578,11.099668 8.01392578,10.0082812 C8.01392578,8.916875 8.8984375,8.03171875 9.98982422,8.03171875 C11.0812109,8.03171875 11.9663672,8.916875 11.9663672,10.0082812 Z" id="Shape" fill="#C0C4CC"></path>
        </g>
    </g>
</svg>