<?xml version="1.0" encoding="UTF-8"?>
<svg width="20px" height="20px" viewBox="0 0 20 20" version="1.1" xmlns="http://www.w3.org/2000/svg" xmlns:xlink="http://www.w3.org/1999/xlink">
    <!-- Generator: Sketch 53 (72520) - https://sketchapp.com -->
    <title>标签</title>
    <desc>Created with Sketch.</desc>
    <g id="标签" stroke="none" stroke-width="1" fill="none" fill-rule="evenodd">
        <g fill-rule="nonzero" id="分组">
            <g>
                <rect id="矩形" fill="#000000" opacity="0" x="1.77462212e-14" y="0" width="20" height="20"></rect>
                <path d="M19.5126339,4.68352935 C19.1210495,2.5490895 17.4508835,0.878713512 15.3163007,0.487247521 C13.584103,0.169512215 11.8522765,0.00714845844 10.1204695,0 L9.87955008,0 C8.14774305,0.00714845844 6.41577978,0.169512215 4.68383604,0.487247521 C2.54915556,0.878713512 0.8789114,2.5490895 0.487366137,4.68352935 C0.167520513,6.42720633 0.00507815475,8.17086378 9.0486646e-14,9.91454077 L9.0486646e-14,10.0851272 C0.00507815475,11.8288042 0.167520513,13.5724616 0.487385668,15.3161386 C0.8789114,17.4505785 2.54915556,19.1210326 4.68383604,19.5126158 C6.4558972,19.8373823 8.22795837,20 9.99994141,20 C11.7720416,20 13.5440442,19.8373823 15.3163007,19.5126158 C17.450864,19.1210326 19.1210495,17.4505785 19.5126339,15.3161386 C19.8376553,13.5438483 20,11.7721439 20,9.99983398 C20,8.2278366 19.8376553,6.45581969 19.5126339,4.68352935 Z" id="路径" fill="#FB8C00"></path>
                <path d="M9.33150707,5.82525432 C9.86541791,5.54781702 10.5232571,5.63421736 10.9616552,6.03870397 C11.0253081,6.10283226 11.1180228,6.13097119 11.2077299,6.11338772 C11.5525272,6.03720581 11.8859943,5.91855273 12.200106,5.76028399 C12.2778953,5.71920037 12.331298,5.64485677 12.343811,5.56013833 C12.3564982,5.4753821 12.3263394,5.38954869 12.2634648,5.32941618 L11.5576077,4.64539463 C10.6664585,3.78486846 9.22189302,3.78486846 8.33074384,4.64539463 L5.30770902,7.55331771 L5.25575905,7.62216207 C5.08819039,7.84844326 4.99850793,8.12023015 5.00001878,8.3988202 L5.00001878,11.4424289 C5.49209073,11.2364249 6.01976448,11.1213567 6.55582538,11.1024023 L6.55001442,11.0986228 C6.55001442,10.8739101 6.73875434,10.6916228 6.97123141,10.6916228 L12.6730018,10.6916228 C12.8941281,10.7060606 13.0656482,10.8834913 13.0656482,11.0977724 C13.0656482,11.3117512 12.8941475,11.4893519 12.6730018,11.5036763 L8.57873616,11.5036763 C9.36900712,11.8691014 10.0266139,12.4564233 10.4654962,13.1888608 L11.0613906,13.1888608 C11.2826719,13.2035065 11.454192,13.3809938 11.454192,13.5949915 C11.454192,13.8090081 11.2826525,13.9865143 11.0613906,14.0012923 L10.8382111,14.0012923 C11.1658523,14.9873371 11.1035975,16.0558137 10.6634562,17 L12.7249905,17 C13.9811066,16.9958425 14.9977918,16.011782 15,14.7980765 L15,10.8013618 L14.9769499,8.49338435 C14.9743349,8.15352791 14.8366927,7.82758019 14.5923806,7.58285483 L14.5440722,7.53464677 L13.6884861,6.70764514 C13.5908814,6.61525423 13.4386343,6.60346206 13.3267539,6.67995999 C12.7567377,7.0506386 12.1183458,7.31240969 11.4462504,7.45125117 C11.3613274,7.47238982 11.2906163,7.52960539 11.2536171,7.60711949 C10.9893347,8.13404437 10.4038613,8.4368235 9.80343436,8.35690508 C9.20298804,8.27700556 8.72375831,7.83287155 8.61648802,7.25666144 C8.50892719,6.68026236 8.79763496,6.10242705 9.33150707,5.82525432 L9.33150707,5.82525432 Z" id="路径" fill="#FFFFFF"></path>
                <path d="M10.4751818,6.15431633 C10.3520399,6.14834314 10.2313196,6.18838494 10.1419112,6.26578353 C10.0522067,6.34277661 10.0009795,6.45063487 10.0003864,6.56376226 C9.99013161,6.79481008 10.1852256,6.98964906 10.4374686,7 L10.531657,7 C10.9727189,7 12.8312604,6.92378827 14.2569311,5.68782349 L14.2801781,5.66671301 C14.87462,5.02979929 15.1194087,4.17973788 14.9448664,3.35763569 C14.9195979,3.20283851 14.8024783,3.07393815 14.6408441,3.02294224 C14.4791677,2.97184906 14.3002245,3.00753257 14.1763666,3.11565322 C14.0524456,3.22328746 14.0044144,3.38508903 14.052214,3.53545009 C14.1669331,4.08815539 14.0068359,4.65895538 13.6149002,5.09274159 C12.3041591,6.20426158 10.4958388,6.15431633 10.4751818,6.15431633 L10.4751818,6.15431633 Z" id="路径" fill="#FFFFFF"></path>
                <path d="M7.11925623,13.1242472 L10.4258828,13.1242472 C9.99019768,12.3790713 9.33735262,11.7816544 8.552804,11.4100466 L6.95501618,11.4100466 C6.72637618,11.4088935 6.54090665,11.2262704 6.53877216,11 C6.00893822,11.0197679 5.48729298,11.1370127 5,11.3458537 L5,14.7587256 C5.00109609,15.9947659 6.01195792,16.9970402 7.26022846,17 L10.6205057,17 C11.0573594,16.0406427 11.1194014,14.9526684 10.7944374,13.9499142 L7.11925623,13.9499142 C6.9633426,13.9605041 6.8146593,13.8840492 6.73364497,13.7520693 C6.65278616,13.6201359 6.65278616,13.4540255 6.73364497,13.3220921 C6.8146593,13.1897663 6.9633426,13.1136765 7.11925623,13.1242472 L7.11925623,13.1242472 Z" id="路径" fill="#FFFFFF" opacity="0.4"></path>
            </g>
        </g>
    </g>
</svg>