<?xml version="1.0" encoding="UTF-8"?>
<svg width="32px" height="32px" viewBox="0 0 32 32" version="1.1" xmlns="http://www.w3.org/2000/svg" xmlns:xlink="http://www.w3.org/1999/xlink">
    <!-- Generator: Sketch 53 (72520) - https://sketchapp.com -->
    <title>标题</title>
    <desc>Created with Sketch.</desc>
    <g id="标题" stroke="none" stroke-width="1" fill="none" fill-rule="evenodd">
        <g fill-rule="nonzero" id="分组">
            <g>
                <rect id="矩形" fill="#000000" opacity="0" x="0" y="0" width="32" height="32"></rect>
                <path d="M20.7002529,2 L2.29974707,2 C1.03150424,2.0044113 0.00450904224,3.00914497 -6.39488462e-14,4.2498969 L-6.39488462e-14,26.7501031 C0.00450904224,27.990855 1.03150424,28.9955887 2.29974707,29 L20.7002529,29 C21.9684958,28.9955887 22.995491,27.990855 23,26.7501031 L23,4.2498969 C22.995491,3.00914497 21.9684958,2.0044113 20.7002529,2 Z M11.1924557,20 L5.8075443,20 C5.37683427,20 5,19.5333578 5,19 C5,18.4666422 5.37831437,18 5.8075443,18 L11.1924557,18 C11.6231657,18 12,18.4666422 12,19 C12,19.5333578 11.6231657,20 11.1924557,20 L11.1924557,20 Z M17.1522482,15 L5.84775177,15 C5.39559678,15 5,14.5333578 5,14 C5,13.4666422 5.39715057,13 5.84775177,13 L17.1522482,13 C17.6044032,13 18,13.4666422 18,14 C18,14.5333578 17.6044032,15 17.1522482,15 Z M17.1522482,10 L5.84775177,10 C5.39559678,10 5,9.53335777 5,9 C5,8.46664223 5.39715057,8 5.84775177,8 L17.1522482,8 C17.6044032,8 18,8.46664223 18,9 C18,9.53335777 17.6044032,10 17.1522482,10 Z" id="形状" fill="#FB8C00"></path>
            </g>
        </g>
    </g>
</svg>