<?xml version="1.0" encoding="UTF-8"?>
<svg width="46px" height="46px" viewBox="0 0 46 46" version="1.1" xmlns="http://www.w3.org/2000/svg" xmlns:xlink="http://www.w3.org/1999/xlink">
    <!-- Generator: Sketch 53 (72520) - https://sketchapp.com -->
    <title>查看-小</title>
    <desc>Created with Sketch.</desc>
    <g id="查看-小" stroke="none" stroke-width="1" fill="none" fill-rule="evenodd">
        <g>
            <rect id="Rectangle" x="0" y="0" width="46" height="46"></rect>
            <circle id="椭圆形" stroke="#FFFFFF" cx="23" cy="23" r="20"></circle>
            <g id="查看-" transform="translate(14.000000, 15.000000)" fill="#FFFFFF" fill-rule="nonzero">
                <rect id="矩形" opacity="0" x="0" y="0" width="19" height="17"></rect>
                <path d="M17.35875,6.4575 C15.4575,3.88125 12.6675,2.25 9.55125,2.25 C6.435,2.25 3.65625,3.88125 1.74375,6.4575 C0.9,7.59375 0.9,9.28125 1.74375,10.4175 C3.65625,12.99375 6.44625,14.625 9.55125,14.625 C12.6675,14.625 15.44625,12.99375 17.35875,10.4175 C18.2025,9.28125 18.2025,7.59375 17.35875,6.4575 Z M9.5625,12.375 C7.39125,12.375 5.625,10.60875 5.625,8.4375 C5.625,6.26625 7.39125,4.5 9.5625,4.5 C11.73375,4.5 13.5,6.26625 13.5,8.4375 C13.5,10.60875 11.73375,12.375 9.5625,12.375 Z M9.5625,5.625 C8.01,5.625 6.75,6.885 6.75,8.4375 C6.75,9.99 8.01,11.25 9.5625,11.25 C11.115,11.25 12.375,9.99 12.375,8.4375 C12.375,6.885 11.115,5.625 9.5625,5.625 Z" id="形状"></path>
            </g>
        </g>
    </g>
</svg>